<?xml version="1.0" standalone="no"?><!DOCTYPE svg PUBLIC "-//W3C//DTD SVG 20010904//EN" "http://www.w3.org/TR/2001/REC-SVG-20010904/DTD/svg10.dtd"><svg xmlns="http://www.w3.org/2000/svg" version="1.0" width="1214.000000pt" height="1280.000000pt" viewBox="0 0 1214.000000 1280.000000" preserveAspectRatio="xMidYMid meet">
<metadata>
Created by potrace 1.15, written by Peter Selinger 2001-2017
</metadata>
<g transform="translate(0.000000,1280.000000) scale(0.100000,-0.100000)" fill="#0369a2" stroke="none">
<path d="M9226 12770 c-18 -17 -42 -49 -51 -73 -23 -54 -23 -170 -1 -256 9 -35 15 -65 14 -66 -2 -2 -36 -8 -77 -14 -145 -23 -241 -66 -491 -224 -224 -140 -249 -151 -355 -151 -70 0 -110 6 -180 27 -85 26 -90 27 -103 10 -37 -49 -72 -167 -72 -245 l0 -41 -52 7 c-67 9 -97 26 -146 81 l-40 46 -21 -44 c-12 -24 -21 -57 -21 -73 0 -51 29 -135 81 -231 l50 -93 -49 0 c-103 0 -201 47 -239 115 l-22 40 -23 -50 c-19 -41 -23 -67 -23 -140 1 -79 5 -98 32 -156 17 -37 48 -85 68 -108 21 -23 36 -43 34 -45 -2 -2 -57 -29 -122 -59 -65 -31 -149 -76 -186 -101 -137 -91 -249 -241 -286 -382 -8 -32 -15 -62 -15 -66 0 -4 25 4 55 18 48 22 154 47 163 39 2 -2 -19 -34 -46 -72 -99 -139 -160 -257 -213 -411 -24 -72 -26 -83 -11 -77 134 55 221 73 280 60 l30 -6 -69 -120 c-38 -65 -87 -148 -109 -184 -62 -102 -105 -193 -134 -283 -14 -46 -26 -90 -26 -98 0 -23 32 -16 100 24 164 95 174 89 100 -68 -70 -151 -98 -232 -106 -316 -6 -61 -6 -64 15 -64 27 0 58 15 91 45 37 34 101 75 116 75 16 0 -3 -54 -71 -198 -82 -173 -152 -276 -322 -475 -220 -257 -384 -430 -501 -528 -106 -88 -354 -256 -497 -336 -264 -147 -621 -311 -900 -412 -281 -103 -424 -173 -569 -280 -208 -154 -454 -475 -614 -803 l-77 -157 -45 -6 c-299 -40 -551 -184 -761 -435 -88 -105 -238 -326 -330 -485 -141 -243 -230 -381 -308 -474 -73 -89 -235 -235 -334 -303 -141 -96 -303 -146 -437 -133 -116 11 -149 -21 -100 -97 15 -24 44 -59 64 -77 20 -19 36 -39 36 -43 0 -11 -131 -10 -260 2 -100 10 -106 9 -122 -11 -16 -19 -16 -24 -2 -57 13 -34 40 -81 90 -157 l19 -30 -55 39 c-87 62 -185 143 -230 192 l-42 46 -27 -26 c-25 -25 -26 -31 -26 -136 0 -69 -4 -109 -10 -107 -5 2 -60 62 -122 133 -182 210 -234 313 -342 677 -58 193 -78 218 -133 160 -37 -40 -57 -85 -89 -193 -70 -247 -63 -515 22 -795 44 -143 121 -329 200 -485 291 -569 730 -808 1281 -699 502 99 897 463 1214 1117 130 268 168 377 254 722 81 330 118 464 161 583 22 62 60 169 83 238 42 122 89 211 120 222 13 5 14 -1 8 -41 -12 -79 -8 -391 7 -467 23 -124 69 -297 110 -417 47 -136 133 -353 162 -411 34 -65 68 -218 79 -355 l11 -128 -36 -164 c-42 -186 -101 -365 -136 -408 -13 -16 -54 -64 -92 -107 -73 -85 -93 -132 -104 -240 -7 -79 8 -174 63 -380 59 -219 98 -333 201 -585 272 -661 254 -600 252 -820 -1 -98 2 -184 6 -190 4 -7 11 -72 15 -146 10 -175 28 -214 115 -261 34 -17 101 -44 150 -59 82 -25 105 -28 255 -28 143 -1 175 2 243 22 44 12 92 29 107 37 35 18 54 70 44 122 -18 103 -156 382 -240 488 -73 91 -105 157 -144 290 -17 61 -73 236 -125 390 -146 435 -175 612 -141 855 27 193 92 288 256 374 120 63 265 167 443 315 93 78 170 141 173 141 2 0 -18 -35 -45 -79 -61 -97 -137 -248 -163 -321 -49 -140 -61 -294 -33 -405 25 -99 238 -519 441 -870 145 -251 152 -266 170 -385 29 -186 36 -204 164 -383 l35 -49 5 -151 c5 -139 8 -157 33 -212 32 -69 85 -128 140 -156 44 -23 143 -37 322 -45 136 -7 236 3 322 32 77 25 81 33 60 110 -29 111 -87 219 -250 462 -85 128 -176 272 -200 320 -68 131 -283 688 -351 907 -48 155 -96 343 -96 378 0 56 111 253 197 348 19 21 117 97 219 170 261 187 430 325 570 464 172 171 244 277 328 481 82 201 88 245 95 759 7 513 5 496 98 596 59 63 84 76 253 129 372 116 717 286 976 481 141 106 420 373 557 534 66 77 186 217 266 310 228 263 299 354 443 570 73 110 193 281 267 381 l133 180 80 -23 c46 -13 107 -23 143 -23 54 0 73 6 159 50 l98 49 -7 -27 c-29 -115 -22 -213 24 -323 35 -84 121 -214 193 -293 47 -52 58 -59 100 -63 66 -8 118 21 228 124 192 181 316 375 396 618 l33 100 43 -4 c24 -1 61 -6 83 -10 l39 -6 22 -145 c25 -161 29 -289 13 -395 -19 -124 -15 -272 10 -340 11 -32 21 -69 21 -81 0 -31 -43 -79 -109 -122 -31 -21 -70 -58 -88 -85 -45 -66 -50 -119 -23 -209 58 -194 200 -357 385 -444 95 -44 135 -51 163 -27 20 16 25 35 37 153 21 192 34 274 56 362 18 74 19 114 17 915 l-3 838 -24 50 c-34 69 -127 160 -198 193 -56 26 -63 27 -210 24 -84 -1 -153 0 -153 3 0 3 23 54 51 113 96 203 106 256 68 392 -49 179 -129 286 -247 331 -50 18 -70 20 -167 16 -60 -3 -207 -21 -325 -40 -118 -19 -238 -38 -266 -41 l-51 -6 -37 63 c-58 99 -147 213 -241 309 -77 78 -85 90 -85 125 0 54 -38 426 -51 498 -6 33 -28 136 -50 228 -38 165 -71 339 -64 345 2 2 46 -6 97 -19 81 -20 117 -23 278 -23 175 0 190 1 275 28 190 60 231 57 367 -26 248 -152 352 -177 443 -106 58 45 255 273 284 328 85 160 31 279 -186 412 -158 97 -313 213 -458 344 -203 184 -281 237 -437 299 -38 15 -68 31 -68 36 0 21 29 78 79 153 58 89 65 127 27 151 -36 24 -123 29 -231 15 -53 -7 -98 -11 -100 -8 -2 2 14 43 36 90 50 108 45 128 -31 128 -63 0 -244 -47 -387 -100 -104 -39 -114 -41 -140 -28 -15 8 -71 38 -123 66 -52 28 -168 82 -257 121 -89 38 -189 84 -222 100 -33 17 -63 31 -65 31 -3 0 -21 -14 -40 -30z"/>
</g>
</svg>